<svg width="18" height="4" viewBox="0 0 18 4" fill="none" xmlns="http://www.w3.org/2000/svg">
<path d="M2 4C3.10457 4 4 3.10456 4 1.99999C4 0.895427 3.10457 0 2 0C0.895431 0 0 0.895427 0 1.99999C0 3.10456 0.895431 4 2 4Z" fill="#46C0EF"/>
<path d="M9 4C10.1046 4 11 3.10456 11 1.99999C11 0.895427 10.1046 0 9 0C7.89543 0 7 0.895427 7 1.99999C7 3.10456 7.89543 4 9 4Z" fill="#46C0EF"/>
<path d="M16 4C17.1046 4 18 3.10456 18 1.99999C18 0.895427 17.1046 0 16 0C14.8954 0 14 0.895427 14 1.99999C14 3.10456 14.8954 4 16 4Z" fill="#46C0EF"/>
</svg>
